<svg xmlns="http://www.w3.org/2000/svg" width="192" height="192" viewBox="0 0 192 192">
  <defs>
    <linearGradient id="g" x1="0%" y1="0%" x2="0%" y2="100%">
      <stop offset="0%" stop-color="#facc15"/>
      <stop offset="100%" stop-color="#e6b800"/>
    </linearGradient>
    <linearGradient id="h" x1="30%" y1="0%" x2="70%" y2="100%">
      <stop offset="0%" stop-color="#ffffff" stop-opacity="0.6"/>
      <stop offset="100%" stop-color="#ffffff" stop-opacity="0"/>
    </linearGradient>
  </defs>
  <rect width="192" height="192" rx="32" fill="#0d0d0d"/>
  <rect x="8" y="8" width="176" height="176" rx="28" fill="none" stroke="#facc15" stroke-width="3" opacity="0.3"/>
  <path d="M96 28 C96 28 52 88 52 120 C52 144.3 71.7 164 96 164 C120.3 164 140 144.3 140 120 C140 88 96 28 96 28Z" fill="url(#g)"/>
  <path d="M96 28 C96 28 52 88 52 120 C52 144.3 71.7 164 96 164 C120.3 164 140 144.3 140 120 C140 88 96 28 96 28Z" fill="url(#h)"/>
  <ellipse cx="82" cy="110" rx="18" ry="10" fill="#ffffff" opacity="0.25"/>
</svg>
