<svg xmlns="http://www.w3.org/2000/svg" width="512" height="512" viewBox="0 0 512 512">
  <defs>
    <linearGradient id="g" x1="0%" y1="0%" x2="0%" y2="100%">
      <stop offset="0%" stop-color="#facc15"/>
      <stop offset="100%" stop-color="#e6b800"/>
    </linearGradient>
    <linearGradient id="h" x1="30%" y1="0%" x2="70%" y2="100%">
      <stop offset="0%" stop-color="#ffffff" stop-opacity="0.5"/>
      <stop offset="100%" stop-color="#ffffff" stop-opacity="0"/>
    </linearGradient>
  </defs>
  <rect width="512" height="512" rx="64" fill="#0d0d0d"/>
  <rect x="24" y="24" width="464" height="464" rx="56" fill="none" stroke="#facc15" stroke-width="6" opacity="0.2"/>
  <path d="M256 60 C256 60 120 220 120 300 C120 375.1 180.9 436 256 436 C331.1 436 392 375.1 392 300 C392 220 256 60 256 60Z" fill="url(#g)"/>
  <path d="M256 60 C256 60 120 220 120 300 C120 375.1 180.9 436 256 436 C331.1 436 392 375.1 392 300 C392 220 256 60 256 60Z" fill="url(#h)"/>
  <ellipse cx="212" cy="270" rx="40" ry="22" fill="#ffffff" opacity="0.2"/>
</svg>
